<svg xmlns="http://www.w3.org/2000/svg" width="677.196" height="568.603" viewBox="0 0 677.196 568.603"><defs><style>.a{fill:#3f3d56;}.b{fill:#7cb518;}.c{fill:#fff;}.d{fill:#a0616a;}.e{fill:#d0cde1;}.f{fill:#2f2e41;}.g{opacity:0.15;}</style></defs><g transform="translate(0 0)"><path class="a" d="M269.061,363.058c-1.823,0-3.665-.029-5.473-.085l.041-1.313c2.6.081,5.245.1,7.853.067l.018,1.314Q270.283,363.058,269.061,363.058Zm10.347-.3-.077-1.312c2.6-.153,5.233-.369,7.826-.641l.137,1.307c-2.613.274-5.266.492-7.886.646Zm-23.721-.2c-2.622-.2-5.271-.464-7.874-.784l.16-1.3c2.584.316,5.212.578,7.814.777Zm39.456-1.445-.2-1.3c2.583-.392,5.186-.847,7.735-1.354l.256,1.289c-2.568.51-5.19.969-7.793,1.363Zm-55.16-.481c-2.59-.439-5.2-.943-7.77-1.5l.279-1.285c2.546.553,5.14,1.054,7.711,1.489Zm70.677-2.6-.316-1.276c2.536-.627,5.085-1.32,7.579-2.059l.374,1.26c-2.512.745-5.081,1.443-7.636,2.075Zm-86.139-.754c-2.54-.676-5.1-1.419-7.6-2.21l.4-1.253c2.483.785,5.02,1.522,7.54,2.192Zm101.308-3.747-.431-1.241c2.461-.855,4.935-1.78,7.357-2.749l.488,1.221c-2.439.977-4.933,1.908-7.413,2.77Zm-116.415-1.029c-2.467-.907-4.95-1.885-7.378-2.908l.51-1.212c2.41,1.015,4.873,1.986,7.322,2.887ZM340.5,347.647l-.544-1.2c2.363-1.074,4.738-2.22,7.059-3.407l.6,1.171c-2.339,1.2-4.732,2.35-7.113,3.433Zm14.062-7.188-.651-1.141c2.266-1.293,4.528-2.652,6.723-4.041l.7,1.11c-2.211,1.4-4.49,2.77-6.773,4.072Zm13.356-8.449-.752-1.077c2.134-1.491,4.263-3.052,6.329-4.64l.8,1.042C372.219,328.935,370.073,330.508,367.923,332.01ZM167.6,330.159c-2.121-1.541-4.241-3.155-6.3-4.8l.82-1.027c2.043,1.631,4.146,3.233,6.251,4.761Zm212.86-7.785-.847-1.005c1.989-1.678,3.968-3.427,5.884-5.2l.892.965c-1.93,1.785-3.924,3.547-5.929,5.238Zm-225.231-2.093c-1.976-1.73-3.939-3.53-5.834-5.349l.91-.949c1.881,1.806,3.829,3.592,5.789,5.309Zm236.845-8.649-.936-.923c1.833-1.858,3.647-3.781,5.39-5.714l.977.879C395.749,307.822,393.922,309.759,392.074,311.631Zm-248.262-2.308c-1.813-1.906-3.6-3.876-5.321-5.855l.993-.861c1.7,1.964,3.481,3.919,5.28,5.811Zm258.855-9.45-1.015-.834c1.656-2.016,3.287-4.1,4.849-6.183l1.052.787c-1.573,2.1-3.217,4.2-4.886,6.231Zm-269.224-2.5c-1.628-2.057-3.231-4.18-4.764-6.312l1.067-.768c1.522,2.115,3.113,4.222,4.728,6.264ZM412.15,287.194l-1.087-.738c1.466-2.158,2.9-4.379,4.266-6.6l1.121.688c-1.377,2.241-2.823,4.479-4.3,6.653Zm-287.94-2.648c-1.432-2.2-2.834-4.455-4.166-6.716l1.132-.667c1.323,2.244,2.714,4.487,4.135,6.665ZM420.44,273.7l-1.15-.635c1.262-2.283,2.488-4.629,3.645-6.97l1.178.583c-1.165,2.359-2.4,4.722-3.673,7.023Zm7.019-14.209-1.2-.528c1.047-2.392,2.053-4.842,2.989-7.28l1.227.471c-.944,2.458-1.958,4.926-3.012,7.337Zm-318.007-2.836c-1.008-2.418-1.972-4.892-2.868-7.354l1.235-.449c.888,2.443,1.846,4.9,2.845,7.3Zm323.69-11.971-1.248-.413c.82-2.471,1.594-5,2.3-7.509l1.266.356C434.749,239.644,433.969,242.19,433.143,244.68Zm-329.09-2.88c-.782-2.5-1.517-5.064-2.184-7.606l1.271-.334c.662,2.523,1.391,5.063,2.167,7.548Zm333.374-12.351-1.28-.3c.588-2.533,1.126-5.12,1.6-7.688l1.293.237c-.477,2.588-1.019,5.195-1.611,7.748Zm-337.388-2.953c-.548-2.567-1.044-5.182-1.474-7.774l1.3-.216c.427,2.573.919,5.168,1.463,7.715Zm340.252-12.607-1.3-.178c.354-2.574.652-5.2.888-7.8l1.309.118c-.238,2.624-.538,5.268-.894,7.863Zm-342.842-3c-.31-2.6-.564-5.252-.757-7.876l1.311-.1c.19,2.6.443,5.234.751,7.817ZM441.72,198.132l-1.313-.059c.117-2.6.176-5.246.176-7.851H441.9C441.9,192.847,441.838,195.508,441.72,198.132ZM96.294,195.107c-.045-1.611-.068-3.256-.068-4.886q0-1.517.026-3.029l1.314.023q-.026,1.5-.026,3.005c0,1.618.023,3.25.067,4.85Zm1.584-15.738-1.312-.082c.164-2.626.391-5.279.673-7.884l1.307.142c-.28,2.586-.5,5.218-.667,7.825Zm341.857-8.019c-.262-2.591-.624-3.855-1-6.434l1.3-.192c.384,2.6.713,4.584.978,7.195ZM99.568,163.76l-1.3-.2c.4-2.6.871-5.221,1.391-7.79l1.288.261C100.432,158.579,99.968,161.18,99.568,163.76ZM437.4,157.178c-.5-2.564-1.067-5.145-1.681-7.671L437,149.2c.619,2.545,1.189,5.146,1.694,7.729Zm-334.721-8.807-1.275-.32c.638-2.546,1.345-5.112,2.1-7.629l1.258.378C104.017,143.3,103.315,145.845,102.682,148.371Zm331.007-6.449c-.733-2.5-1.534-5.02-2.38-7.483l1.242-.427c.854,2.482,1.661,5.019,2.4,7.541Zm-326.483-8.609-1.24-.436c.873-2.485,1.817-4.981,2.8-7.42l1.219.493c-.979,2.42-1.916,4.9-2.782,7.363Zm321.379-6.24c-.959-2.419-1.986-4.846-3.052-7.215l1.2-.54c1.075,2.387,2.11,4.834,3.075,7.271Zm-315.48-8.348-1.194-.549c1.1-2.391,2.266-4.788,3.473-7.125l1.168.6C115.354,113.974,114.195,116.353,113.105,118.726Zm309.047-5.938c-1.176-2.32-2.423-4.645-3.7-6.91l1.144-.648c1.292,2.282,2.547,4.625,3.733,6.963Zm-301.834-8.037-1.139-.656c1.311-2.277,2.694-4.556,4.11-6.773l1.108.707c-1.405,2.2-2.777,4.462-4.078,6.722Zm294.112-5.609c-1.389-2.211-2.843-4.413-4.322-6.547l1.079-.749c1.491,2.15,2.957,4.369,4.356,6.6ZM128.779,91.5l-1.074-.757c1.515-2.149,3.1-4.291,4.71-6.366l1.038.805C131.855,87.245,130.282,89.371,128.779,91.5ZM405.49,86.251c-1.584-2.075-3.233-4.137-4.9-6.13l1.008-.844c1.683,2.008,3.345,4.086,4.941,6.176ZM138.408,79.088l-1-.852c1.7-2,3.473-3.985,5.267-5.908l.961.9C141.855,75.133,140.1,77.106,138.408,79.088Zm257-4.868c-1.766-1.922-3.6-3.827-5.443-5.661l.927-.932c1.86,1.849,3.7,3.768,5.484,5.7ZM149.124,67.606l-.919-.94c1.879-1.839,3.824-3.657,5.78-5.4l.875.981C152.919,63.977,150.989,65.781,149.124,67.606Zm235.148-4.455c-1.935-1.755-3.933-3.486-5.938-5.144l.838-1.013c2.02,1.671,4.033,3.415,5.983,5.184Zm-223.438-6L160,56.13c2.033-1.655,4.134-3.288,6.244-4.853l.783,1.056C164.936,53.886,162.851,55.507,160.833,57.15Zm12.606-9.343-.734-1.09c2.176-1.464,4.415-2.9,6.657-4.261l.683,1.123c-2.224,1.353-4.447,2.776-6.606,4.229Zm13.4-8.15-.631-1.153c2.3-1.259,4.662-2.481,7.014-3.632l.578,1.181c-2.335,1.142-4.677,2.355-6.961,3.6Zm158.622-3.045c-2.339-1.165-4.734-2.291-7.12-3.346l.531-1.2c2.4,1.063,4.819,2.2,7.176,3.371ZM200.915,32.771l-.522-1.206c2.405-1.043,4.866-2.042,7.313-2.972l.467,1.229C205.744,30.744,203.3,31.736,200.915,32.771Zm130.154-2.52c-2.434-.944-4.924-1.844-7.4-2.676l.418-1.246c2.5.838,5.008,1.746,7.46,2.7ZM215.576,27.2l-.409-1.249c2.5-.819,5.046-1.59,7.574-2.291l.351,1.266C220.583,25.626,218.054,26.391,215.576,27.2Zm100.589-1.954c-2.507-.715-5.064-1.38-7.6-1.978l.3-1.279c2.556.6,5.132,1.273,7.658,1.993ZM230.7,23l-.293-1.281c2.561-.585,5.169-1.118,7.753-1.584l.234,1.293c-2.564.463-5.152.992-7.693,1.572Zm70.178-1.358c-2.559-.48-5.166-.908-7.749-1.27l.182-1.3c2.6.365,5.23.8,7.809,1.28Zm-54.726-1.43-.174-1.3c2.6-.347,5.248-.639,7.864-.867l.114,1.309C251.365,19.582,248.74,19.872,246.157,20.216Zm39.178-.754c-2.589-.244-5.224-.432-7.833-.558l.064-1.313c2.628.127,5.283.317,7.892.563ZM261.8,18.852l-.055-1.313c2.416-.1,4.877-.152,7.318-.153h.595l0,1.314h-.591c-2.422,0-4.866.052-7.263.151Z" transform="translate(-88.692 -17.386)"/><path class="a" d="M570.816,101.605V527.584a19.149,19.149,0,0,1-19.143,19.13H378.737a19.11,19.11,0,0,1-19.143-19.13V101.605a19.142,19.142,0,0,1,19.145-19.143h25.878v3.319a15.764,15.764,0,0,0,15.761,15.766h87.954a15.634,15.634,0,0,0,9.345-3.076,14.648,14.648,0,0,0,1.551-1.3,15.718,15.718,0,0,0,4.863-11.389V82.462h27.581a19.137,19.137,0,0,1,19.143,19.143Z" transform="translate(-178.983 -39.696)"/><rect class="b" width="160.655" height="122.234" transform="translate(205.895 196.327)"/><path class="b" d="M255.71,284.789c14.3.307,25.682,10.673,25.682,10.673s-11.813,9.868-26.116,9.561-25.683-10.673-25.683-10.673S241.406,284.482,255.71,284.789Z" transform="translate(-134.414 -109.057)"/><path class="b" d="M149.966,199.208c12.923,6.139,27.741,1.976,27.741,1.976s-6.134-14.117-19.057-20.257-27.741-1.976-27.741-1.976S137.042,193.068,149.966,199.208Z" transform="translate(-100.583 -72.302)"/><path class="a" d="M148.928,201.144c14.248-1.3,26.719,7.72,26.719,7.72S165.018,220,150.77,221.3s-26.719-7.72-26.719-7.72S134.68,202.446,148.928,201.144Z" transform="translate(-98.232 -80.339)"/><path class="a" d="M241.305,192.016c-1.366,14.242,7.6,26.753,7.6,26.753s11.18-10.579,12.546-24.821-7.6-26.753-7.6-26.753S242.671,177.774,241.305,192.016Z" transform="translate(-138.381 -68.745)"/><path class="a" d="M340.7,329.108c-7.473,12.2-4.9,27.376-4.9,27.376s14.687-4.6,22.16-16.805,4.9-27.376,4.9-27.376S348.177,316.908,340.7,329.108Z" transform="translate(-170.679 -118.492)"/><path class="a" d="M271.859,427.543l1.089-.736a34.12,34.12,0,0,1-6.022-18.922c.031-9.9,4.891-19.048,9.592-27.9.872-1.643,1.742-3.281,2.579-4.917a107.343,107.343,0,0,0,8.349-20.959c7.291-27.1.113-59.062-19.2-85.512-15.322-20.983-38.163-39.331-69.827-56.093l-.615,1.162c31.484,16.667,54.178,34.889,69.38,55.707,19.082,26.132,26.183,57.682,18.994,84.4a106.061,106.061,0,0,1-8.249,20.7c-.834,1.63-1.7,3.262-2.57,4.9-4.775,8.992-9.714,18.291-9.745,28.512a35.446,35.446,0,0,0,6.247,19.661Z" transform="translate(-123.516 -84.278)"/><circle class="a" cx="12.486" cy="12.486" r="12.486" transform="translate(0 104.981)"/><path class="b" d="M245.573,421.739l-78.38-6.532V300.25l78.38-3.919Z" transform="translate(-57.318 -101.591)"/><path class="b" d="M584.61,421.739l78.38-6.532V300.25l-78.38-3.919Z" transform="translate(-200.421 -101.591)"/><path class="c" d="M528.505,373.824a15.661,15.661,0,0,0-17.185-2.185,23.194,23.194,0,0,1-7.628,2.182,44.15,44.15,0,0,1,3.1-16.768l.347-.895h-4.607l-.132.484a50.991,50.991,0,0,0-1.211,5.734,14.862,14.862,0,0,0-.964-2.433c-3.231-6.406-10.7-9.027-11.014-9.135l-.637-.218-.2.641c-.1.319-2.432,7.88.8,14.287,2.313,4.587,6.8,7.232,9.274,8.405a23.833,23.833,0,0,1-9.015-2.412,10.514,10.514,0,0,0-11.131.94c-8.6,6.536-13.535,16.117-13.535,26.287,0,13.359,8.651,25.593,22.041,31.168a9.916,9.916,0,0,0,3.811.757,10.109,10.109,0,0,0,5.161-1.416,13.647,13.647,0,0,1,13.673-.027,10.082,10.082,0,0,0,8.977.632c13.311-5.6,21.912-17.809,21.912-31.114A32.561,32.561,0,0,0,528.505,373.824Zm-24.966-16.351h1.691a45.316,45.316,0,0,0-2.863,15.931h-.3a47.807,47.807,0,0,1,1.473-15.93Zm-13.194,7.453c-2.453-4.864-1.377-10.661-.9-12.617,1.855.778,7.151,3.353,9.609,8.225s1.377,10.659.9,12.616c-1.857-.781-7.157-3.362-9.609-8.224Zm27.572,63.713a8.755,8.755,0,0,1-7.8-.554,14.961,14.961,0,0,0-15.013.031,8.748,8.748,0,0,1-7.794.575c-12.9-5.37-21.231-17.128-21.231-29.955,0-9.755,4.744-18.955,13.015-25.24a9.105,9.105,0,0,1,5.511-1.84,9.211,9.211,0,0,1,4.223,1.022,27.131,27.131,0,0,0,23.078.137,14.346,14.346,0,0,1,15.744,2.005,31.261,31.261,0,0,1,11.375,23.916c0,12.775-8.286,24.511-21.108,29.9Z" transform="translate(-215.038 -131.618)"/><path class="c" d="M302.178,362.277v-1.543h.613v-4.807a1.944,1.944,0,0,0-1.039-1.733,9.351,9.351,0,0,0-8.664.007,1.959,1.959,0,0,0-1.119,1.773v4.76h.613v1.4a10.711,10.711,0,0,0-7.82,10.356v10.4l1.168.39-1.168.778v3.125l1.168.39-1.168.779v3.125l1.168.389-1.168.779v23.8a7.012,7.012,0,0,0,7,7h10.325a7,7,0,0,0,6.988-6.988V392.642l-1.168-.779,1.168-.389v-3.125l-1.168-.779,1.168-.39v-3.125l-1.168-.779,1.168-.39V371.949A10.282,10.282,0,0,0,302.178,362.277Zm-8.533-6.885a8,8,0,0,1,7.5-.032.641.641,0,0,1,.333.568V358.5h-8.192v-2.526a.641.641,0,0,1,.361-.582Zm14.119,26.548-2.819.94,2.819,1.879v1.475l-2.819.94,2.819,1.879v1.475l-2.819.939,2.819,1.879v23.117a5.68,5.68,0,0,1-5.673,5.673H291.766a5.7,5.7,0,0,1-5.689-5.689v-23.1l2.819-1.879-2.819-.939v-1.475l2.819-1.879-2.819-.94v-1.475l2.819-1.879-2.819-.94v-9.453a9.4,9.4,0,0,1,7.311-9.206l.509-.118v-2.429h6.966v2.517l.474.138a8.957,8.957,0,0,1,6.426,8.561Z" transform="translate(-153.328 -132.49)"/><path class="c" d="M745.88,387.628l-3.309-.661.779-1.558-1.518-.3.263-1.578-1.657-.277v-1.5l-1.344-.384,1.276-1.6h-2.215l.463-1.155-1.638-.273.556-1.948h-1.772V374.58h-.657c-2.07,0-3.225,2.459-3.6,3.444-11.43,1.993-44.616,24.98-48.4,27.624-1.574-.51-3.908.686-4.395.952l-.771.421,1.113,1.113-.332.995,2.042.766-.447,1.118,1.286,1.072-1.155.867,1.739,1.044-.306,1.525,1.942.278v1.526l1.128.226-.562,1.97h1.252v1.558h1.222l.554,1.66.569-.114c1.322-.264,2.454-2.093,2.9-2.9,11.008-1.964,44.993-25.875,48.3-28.216,3.862.463,5.281-.569,5.433-.691l.628-.5-1.5-1.25Zm-6.791,2.539-.256-.034-.211.15c-.375.267-37.646,26.672-48.271,28.189l-.341.049-.154.308a7.89,7.89,0,0,1-1.626,2.222l-.429-1.287h-.855V418.2h-.825l.476-1.665-1.469-.294v-1.589l-1.694-.242.214-1.072-.858-.515.922-.691-1.829-1.524.591-1.479-2.113-.793.188-.564-.408-.409c.987-.41,2.181-.715,2.693-.408l.366.22.349-.245c.373-.262,37.391-26.153,48.529-27.672l.416-.057.124-.4a5.352,5.352,0,0,1,1.83-2.728v1.634h1.344l-.483,1.688,1.479.246-.577,1.441h1.422l-.8,1,2.291.654v1.619l1.459.243-.256,1.538,1.079.215-.779,1.558,1.884.377-.97.647,1.4,1.163a10.5,10.5,0,0,1-3.847.063Z" transform="translate(-288.118 -139.842)"/><circle class="b" cx="19.058" cy="19.058" r="19.058" transform="translate(267.164 336.305)"/><path class="c" d="M441.276,532.6H431.158V522.487h-3.764V532.6H417.277v3.764h10.117v10.117h3.764V536.368h10.117Z" transform="translate(-143.054 -179.123)"/><path class="c" d="M509.86,539.346l-9.858-4.6v2.629H477v3.943h23v2.629Z" transform="translate(-163.529 -183.326)"/><path class="c" d="M344.072,539.346l9.858-4.6v2.629h23v3.943h-23v2.629Z" transform="translate(-117.958 -183.326)"/><rect class="a" width="481.707" height="1.314" transform="translate(45.369 507.169)"/><rect class="c" width="126.177" height="1.314" transform="translate(223.134 104.981)"/><rect class="c" width="126.177" height="1.314" transform="translate(223.439 463.796)"/><path class="d" d="M920.806,525.632l-3.286,12.486s-11.829,26.287,0,27.6,12.486-34.173,12.486-34.173Z" transform="translate(-368.453 -191.627)"/><path class="e" d="M943.921,388.632,920.263,481.95s9.2,2.629,13.8,5.915Z" transform="translate(-371.196 -144.66)"/><path class="f" d="M1015.57,496.622l6.572,101.862s15.772,40.087,15.115,78.2c0,0-5.915,15.115-1.314,17.744s7.229,4.6,4.6,6.572-4.6,6.572-2.629,7.886,2.629,3.286,1.972,3.286h-19.715s3.943-9.858-1.971-12.486-2.629-9.2-2.629-9.2L971.54,561.682,936.71,679.973s5.915,3.943,1.314,5.915-6.572-1.972-4.6,1.971-.657,5.915-.657,6.572-19.715-1.971-19.715-1.971,9.858-8.543,5.257-10.515-6.572-3.943-5.257-5.257,6.572-13.8,6.572-13.8,2.629-47.316,3.286-49.288,0-11.172,0-15.772-.657-23,1.314-27.6,3.943-61.117,14.458-67.689S1015.57,496.622,1015.57,496.622Z" transform="translate(-368.587 -181.676)"/><path class="f" d="M915.174,791.851s13.143,26.944,3.943,30.23-21.029.657-23.658,4.6-31.544,8.543-32.2-1.314S894.8,797.108,894.8,797.108L899,790.354Z" transform="translate(-351.649 -282.381)"/><path class="f" d="M1077.172,821.851s13.143,26.944,3.943,30.23-21.029.657-23.658,4.6-31.544,8.543-32.2-1.314,31.544-28.258,31.544-28.258l4.195-6.754Z" transform="translate(-407.187 -292.666)"/><circle class="d" cx="21.687" cy="21.687" r="21.687" transform="translate(587.512 147.697)"/><path class="d" d="M935.1,275.246,932.474,294.3l-19.715,15.115L907.5,302.19V277.218Z" transform="translate(-311.117 -94.362)"/><path class="a" d="M973.893,326.889s20.372,1.972,30.887-5.257l21.029,124.205s-74.26,5.915-77.546,1.971V409.036l13.143-63.089Z" transform="translate(-380.795 -121.69)"/><path class="e" d="M1021.441,312.6l7.067,5.938s28.916,4.6,26.944,12.486l-7.886,93.318,2.629,31.544s-22.344-5.915-39.43,0-3.512-127.1-3.512-127.1S1022.92,314.544,1021.441,312.6Z" transform="translate(-399.265 -118.592)"/><path class="e" d="M974.093,323.541s-21.029,15.174-23.658,25.032-11.172,113.691-11.172,113.691,3.943-1.972,5.915,1.314S977.379,328.739,974.093,323.541Z" transform="translate(-377.71 -122.345)"/><path class="d" d="M1065.823,530.232l-4.711,15.372s-1.2,28.658-16.976,24.715,4.6-37.459,4.6-37.459l4.6-7.229Z" transform="translate(-411.61 -191.627)"/><path class="f" d="M977.917,256.089s-2.348-3.522-1.445-7.314a22.166,22.166,0,0,0,.632-6.592,65.242,65.242,0,0,1,3.792-9.571c1.9-3.431.993-4.876,6.953-5.96s3.522-8.849,19.233-.451a4.608,4.608,0,0,0,4.786,1.806c3.251-.632,4.425,3.883,4.425,3.883s2.167-1.264,2.98.542,6.607-1.084,6.607,11.106-6.594,23.079-6.594,23.079.483-20.505-10.262-22.582-22.3-8.127-25.1-.361A59.2,59.2,0,0,1,977.917,256.089Z" transform="translate(-390.395 -87.651)"/><ellipse class="d" cx="2.119" cy="2.826" rx="2.119" ry="2.826" transform="translate(627.007 167.662)"/><path class="e" d="M1068.061,333.56s10.515-2.629,13.8,15.115,7.229,68.346,7.229,68.346l-15.772,53.231s-15.772-8.543-19.058-7.229l12.411-46.213-10.44-47.105S1065.432,333.56,1068.061,333.56Z" transform="translate(-417.134 -125.732)"/><path class="g" d="M967.237,372.614l13.8,46-13.8,46.659,7.886-46.659Z" transform="translate(-331.596 -127.743)"/></g></svg>